# xmcd
#
# Track frame offsets:
#	150
#	16014
#	37685
#	58089
#	76686
#	96584
#	114970
#	134079
#	157617
#	177286
#	196526
#
# Disc length: 2951 seconds
#
# Revision: 1
# Processed by: cddbd v1.5.2PL0 Copyright (c) Steve Scherf et al.
# Submitted via: audiograbber 1.83.01
#
DISCID=760b850b
DTITLE=Kenny Chesney - Just Who I Am: Poets and Pirates
DYEAR=2007
DGENRE=Country
TTITLE0=Kenny Chesney - Never Wanted Nothing More
TTITLE1=Kenny Chesney - Don't Blink
TTITLE2=Kenny Chesney - Shiftwork (Featuring George Strait)
TTITLE3=Kenny Chesney - Just Not Today
TTITLE4=Kenny Chesney - Wife And Kids
TTITLE5=Kenny Chesney - Got A Little Crazy
TTITLE6=Kenny Chesney - Better As A Memory
TTITLE7=Kenny Chesney - Dancin' For The Groceries
TTITLE8=Kenny Chesney - Wild Ride (Featuring Joe Walsh)
TTITLE9=Kenny Chesney - Scare Me
TTITLE10=Kenny Chesney - Demons
EXTD=YEAR: 2007
EXTT0=
EXTT1=
EXTT2=
EXTT3=
EXTT4=
EXTT5=
EXTT6=
EXTT7=
EXTT8=
EXTT9=
EXTT10=
PLAYORDER=
